<svg width="14" height="14" viewBox="0 0 14 14" fill="none" xmlns="http://www.w3.org/2000/svg">
<path d="M11.4996 6.71141C11.6539 7.75172 11.4762 8.81418 10.9918 9.74768C10.5075 10.6812 9.74107 11.4382 8.80167 11.911C7.86227 12.3838 6.79769 12.5484 5.75937 12.3813C4.72104 12.2142 3.76183 11.724 3.01818 10.9804C2.27453 10.2367 1.7843 9.27751 1.61722 8.23918C1.45014 7.20085 1.61472 6.13628 2.08754 5.19688C2.56037 4.25748 3.31737 3.49109 4.25087 3.00671C5.18436 2.52234 6.24683 2.34465 7.28713 2.49891C8.34829 2.65627 9.3307 3.15074 10.0893 3.9093C10.8478 4.66785 11.3423 5.65026 11.4996 6.71141Z" stroke="#757575" stroke-width="3" stroke-linecap="round" stroke-linejoin="round"/>
</svg>
